<?xml version="1.0" encoding="UTF-8"?>
<svg width="34px" height="17px" viewBox="0 0 34 17" version="1.1" xmlns="http://www.w3.org/2000/svg" xmlns:xlink="http://www.w3.org/1999/xlink">
    <!-- Generator: Sketch 50.2 (55047) - http://www.bohemiancoding.com/sketch -->
    <title>Shape</title>
    <desc>Created with Sketch.</desc>
    <defs></defs>
    <g id="Page-1" stroke="none" stroke-width="1" fill="none" fill-rule="evenodd">
        <g id="Home-Copy-7" transform="translate(-1365.000000, -5734.000000)" fill="#81C343" fill-rule="nonzero">
            <g id="Group-13" transform="translate(-56.000000, 5315.000000)">
                <g id="Group-14" transform="translate(0.000000, 283.000000)">
                    <g id="Group-15" transform="translate(1342.000000, 46.000000)">
                        <path d="M112.775277,97.9579571 L105.048184,90.2687842 C104.770611,89.9462544 104.282799,89.9086557 103.958676,90.1849304 C103.634553,90.4611391 103.596769,90.9465526 103.874408,91.2690824 C103.900306,91.2991482 103.928462,91.3272316 103.958676,91.3529362 L110.364441,97.7349417 L79.7726894,97.7349417 C79.3459704,97.7349417 79,98.0792113 79,98.5038986 C79,98.9285859 79.3459704,99.2727895 79.7726894,99.2727895 L110.364441,99.2727895 L103.958676,105.647064 C103.634553,105.923272 103.596769,106.408686 103.874408,106.731216 C104.152048,107.053746 104.639793,107.091344 104.963916,106.81507 C104.99413,106.789299 105.022353,106.761282 105.048184,106.731216 L112.775343,99.0420429 C113.074897,98.7422442 113.074897,98.2578879 112.775277,97.9579571 Z" id="Shape"></path>
                    </g>
                </g>
            </g>
        </g>
    </g>
</svg>