<svg viewBox="0 0 19 20" xmlns="http://www.w3.org/2000/svg">
    <g>
        <g transform="translate(-262.000000, -6426.000000)">
            <g transform="translate(181.000000, 6082.000000)">
                <g transform="translate(78.000000, 117.000000)">
                    <path d="M21.1471948,230.281324 C20.8647669,229.998583 20.5296842,229.857193 20.1428069,229.857193 L18.7144058,229.857193 L18.7144058,228.785726 C18.7144058,228.294751 18.5393982,227.874334 18.1897349,227.524632 C17.8398761,227.174929 17.4196937,227 16.9284842,227 L16.2143813,227 C15.7232109,227 15.3028722,227.174929 14.9531697,227.524671 C14.60335,227.874334 14.4284988,228.29479 14.4284988,228.785765 L14.4284988,229.857232 L10.1430219,229.857232 L10.1430219,228.785765 C10.1430219,228.29479 9.96809249,227.874373 9.61835097,227.524671 C9.26868764,227.174929 8.84830983,227 8.35713937,227 L7.64291927,227 C7.15186608,227 6.73144918,227.174929 6.38170766,227.524671 C6.03204433,227.874334 5.85707585,228.29479 5.85707585,228.785765 L5.85707585,229.857232 L4.42863565,229.857232 C4.04164101,229.857232 3.70687111,229.998622 3.42413048,230.281363 C3.14138986,230.564064 3,230.89899 3,231.285868 L3,245.57156 C3,245.958164 3.14138986,246.293012 3.42413048,246.575909 C3.70683202,246.858571 4.04160192,247 4.42863565,247 L20.1425333,247 C20.5294106,247 20.8645323,246.85861 21.1469211,246.575909 C21.4297009,246.293129 21.5711298,245.958124 21.5711298,245.57156 L21.5711298,231.285829 C21.5710907,230.898834 21.4298181,230.564064 21.1471948,230.281324 Z M15.8572518,228.785883 C15.8572518,228.681629 15.8904395,228.595982 15.9573231,228.529176 C16.0242067,228.462292 16.1098146,228.428792 16.2141468,228.428792 L16.9282496,228.428792 C17.0326209,228.428792 17.1179552,228.462175 17.1850733,228.529176 C17.2519961,228.596099 17.2854183,228.681746 17.2854183,228.785883 L17.2854183,232.000049 C17.2854183,232.104264 17.2519961,232.189754 17.1850733,232.256755 C17.1179161,232.323561 17.0326209,232.357139 16.9282496,232.357139 L16.2141468,232.357139 C16.1098146,232.357139 16.0242067,232.323717 15.9573231,232.256755 C15.8904395,232.189715 15.8572518,232.104264 15.8572518,232.000049 L15.8572518,228.785883 Z M7.28582876,228.785883 C7.28582876,228.681629 7.31925103,228.595982 7.38621283,228.529176 C7.45321372,228.462292 7.53870435,228.428792 7.64291927,228.428792 L8.35713937,228.428792 C8.46139338,228.428792 8.54704037,228.462175 8.61384581,228.529176 C8.68072943,228.596099 8.71430805,228.681746 8.71430805,228.785883 L8.71430805,232.000049 C8.71430805,232.104264 8.68088579,232.189872 8.61384581,232.256755 C8.54688401,232.323561 8.46139338,232.357139 8.35713937,232.357139 L7.64291927,232.357139 C7.53870435,232.357139 7.45309645,232.323717 7.38621283,232.256755 C7.31940739,232.189715 7.28582876,232.104264 7.28582876,232.000049 L7.28582876,228.785883 Z M20.1425333,245.571364 L4.42863565,245.571364 L4.42863565,234.142905 L20.1425333,234.142905 L20.1425333,245.571364 Z" ></path>
                </g>
            </g>
        </g>
    </g>
</svg>