
<svg viewBox="0 0 24 17" xmlns="http://www.w3.org/2000/svg">
    <g>
        <g transform="translate(-601.000000, -7920.000000)" >
            <g transform="translate(275.000000, 7708.000000)">
                <g transform="translate(326.000000, 212.000000)">
                    <g >
                        <path d="M12.0025555,11.7567379 L9.05184034,9.10714286 L0.615384615,16.5263587 C0.922040922,16.8182336 1.33602694,17 1.7926041,17 L22.2125068,17 C22.6673804,17 23.0796627,16.8182336 23.3846154,16.5263587 L14.9532706,9.10714286 L12.0025555,11.7567379 Z" fill-rule="nonzero"></path>
                        <path d="M23.3846154,0.466184524 C23.077982,0.177184524 22.6657305,0 22.207484,0 L1.78910899,0 C1.3342695,0 0.922017979,0.178904762 0.615384615,0.469625 L11.9982965,10.3214286 L23.3846154,0.466184524 Z"  fill-rule="nonzero"></path>
                        <polygon fill-rule="nonzero" points="0 1.21428571 0 15.1785714 8 8.2754273"></polygon>
                        <polygon fill-rule="nonzero" points="16 8.27791911 24 15.1785714 24 1.21428571"></polygon>
                    </g>
                </g>
            </g>
        </g>
    </g>
</svg>