<svg viewBox="0 0 62 62" xmlns="http://www.w3.org/2000/svg">
    <g fill="none">
        <g transform="translate(-258.000000, -6278.000000)">
            <g transform="translate(181.000000, 6082.000000)">
                <g transform="translate(78.000000, 117.000000)">
                    <g transform="translate(0.000000, 80.000000)">
                        <path d="M30,60 C46.5685425,60 60,46.5685425 60,30 C60,13.4314575 46.5685425,0 30,0 C13.4314575,0 0,13.4314575 0,30 C0,46.5685425 13.4314575,60 30,60 Z"  stroke="#81C343" stroke-dasharray="5"></path>
                        <path d="M29.7841797,31.1816406 C29.7841797,34.1308741 29.2495171,36.3867109 28.1801758,37.9492188 C27.1108345,39.5117266 25.5849708,40.2929688 23.6025391,40.2929688 C21.6396386,40.2929688 20.1235405,39.533699 19.0541992,38.0151367 C17.9848579,36.4965744 17.4306643,34.3213032 17.3916016,31.4892578 L17.3916016,27.4609375 C17.3916016,24.5214697 17.9238228,22.272957 18.9882812,20.715332 C20.0527397,19.1577071 21.5810447,18.3789062 23.5732422,18.3789062 C25.5654396,18.3789062 27.0937447,19.1503829 28.1582031,20.6933594 C29.2226616,22.2363358 29.7646483,24.4384623 29.7841797,27.2998047 L29.7841797,31.1816406 Z M25.6240234,26.8603516 C25.6240234,25.1806557 25.4580095,23.9209026 25.1259766,23.0810547 C24.7939437,22.2412067 24.2763707,21.8212891 23.5732422,21.8212891 C22.2548762,21.8212891 21.5712893,23.3593596 21.5224609,26.4355469 L21.5224609,31.7529297 C21.5224609,33.4716883 21.6909163,34.7509724 22.027832,35.5908203 C22.3647478,36.4306683 22.8896449,36.8505859 23.6025391,36.8505859 C24.2763706,36.8505859 24.7768538,36.4575235 25.1040039,35.6713867 C25.431154,34.88525 25.6044921,33.6816487 25.6240234,32.0605469 L25.6240234,26.8603516 Z M41.6933594,40 L37.5332031,40 L37.5332031,23.7109375 L33.4755859,25.2783203 L33.4755859,21.8212891 L41.2539062,18.6425781 L41.6933594,18.6425781 L41.6933594,40 Z" id="01" fill="#81C343"></path>
                    </g>
                </g>
            </g>
        </g>
    </g>
</svg>