<svg viewBox="0 0 62 62" xmlns="http://www.w3.org/2000/svg">
    <g fill="none">
        <g transform="translate(-1030.000000, -6278.000000)">
            <g transform="translate(181.000000, 6082.000000)">
                <g transform="translate(78.000000, 117.000000)">
                    <g transform="translate(772.000000, 80.000000)">
                        <path d="M30,60 C46.5685425,60 60,46.5685425 60,30 C60,13.4314575 46.5685425,0 30,0 C13.4314575,0 0,13.4314575 0,30 C0,46.5685425 13.4314575,60 30,60 Z" stroke="#81C343" stroke-dasharray="5"></path>
                        <path d="M29.7841797,31.1816406 C29.7841797,34.1308741 29.2495171,36.3867109 28.1801758,37.9492188 C27.1108345,39.5117266 25.5849708,40.2929688 23.6025391,40.2929688 C21.6396386,40.2929688 20.1235405,39.533699 19.0541992,38.0151367 C17.9848579,36.4965744 17.4306643,34.3213032 17.3916016,31.4892578 L17.3916016,27.4609375 C17.3916016,24.5214697 17.9238228,22.272957 18.9882812,20.715332 C20.0527397,19.1577071 21.5810447,18.3789062 23.5732422,18.3789062 C25.5654396,18.3789062 27.0937447,19.1503829 28.1582031,20.6933594 C29.2226616,22.2363358 29.7646483,24.4384623 29.7841797,27.2998047 L29.7841797,31.1816406 Z M25.6240234,26.8603516 C25.6240234,25.1806557 25.4580095,23.9209026 25.1259766,23.0810547 C24.7939437,22.2412067 24.2763707,21.8212891 23.5732422,21.8212891 C22.2548762,21.8212891 21.5712893,23.3593596 21.5224609,26.4355469 L21.5224609,31.7529297 C21.5224609,33.4716883 21.6909163,34.7509724 22.027832,35.5908203 C22.3647478,36.4306683 22.8896449,36.8505859 23.6025391,36.8505859 C24.2763706,36.8505859 24.7768538,36.4575235 25.1040039,35.6713867 C25.431154,34.88525 25.6044921,33.6816487 25.6240234,32.0605469 L25.6240234,26.8603516 Z M36.2587891,27.4462891 L38.265625,27.4462891 C39.0273476,27.4462891 39.586424,27.1801784 39.9428711,26.6479492 C40.2993182,26.11572 40.4775391,25.4052779 40.4775391,24.5166016 C40.4775391,23.6669879 40.2944354,23.0053735 39.9282227,22.5317383 C39.5620099,22.0581031 39.0712921,21.8212891 38.4560547,21.8212891 C37.8798799,21.8212891 37.4086932,22.0458962 37.0424805,22.4951172 C36.6762677,22.9443382 36.4931641,23.5107388 36.4931641,24.1943359 L32.3476562,24.1943359 C32.3476562,23.0810491 32.6040013,22.082524 33.1166992,21.1987305 C33.6293971,20.314937 34.3471634,19.6240259 35.2700195,19.1259766 C36.1928757,18.6279272 37.2158147,18.3789062 38.3388672,18.3789062 C40.3017676,18.3789062 41.8398382,18.920893 42.953125,20.0048828 C44.0664118,21.0888726 44.6230469,22.5732328 44.6230469,24.4580078 C44.6230469,25.4248095 44.3715845,26.3207967 43.8686523,27.1459961 C43.3657201,27.9711955 42.7041057,28.6035134 41.8837891,29.0429688 C42.8896535,29.4726584 43.6391577,30.1171832 44.1323242,30.9765625 C44.6254907,31.8359418 44.8720703,32.8515566 44.8720703,34.0234375 C44.8720703,35.9179782 44.269049,37.4365177 43.0629883,38.5791016 C41.8569276,39.7216854 40.2724708,40.2929688 38.3095703,40.2929688 C36.4833893,40.2929688 35.0014705,39.7290095 33.8637695,38.6010742 C32.7260685,37.4731389 32.1572266,35.9912201 32.1572266,34.1552734 L36.3027344,34.1552734 C36.3027344,34.916996 36.5029277,35.556638 36.9033203,36.0742188 C37.3037129,36.5917995 37.8115204,36.8505859 38.4267578,36.8505859 C39.139652,36.8505859 39.7036112,36.5869167 40.1186523,36.0595703 C40.5336935,35.5322239 40.7412109,34.829106 40.7412109,33.9501953 C40.7412109,31.8505754 39.9257894,30.7958985 38.2949219,30.7861328 L36.2587891,30.7861328 L36.2587891,27.4462891 Z" fill="#81C343"></path>
                    </g>
                </g>
            </g>
        </g>
    </g>
</svg>