
<svg viewBox="0 0 20 20" xmlns="http://www.w3.org/2000/svg">
    <g transform="translate(-255.000000, -430.000000)">
        <path d="M274.24503,430.755331 C273.741534,430.251701 273.13816,430 272.435227,430 L257.565229,430 C256.862068,430 256.258876,430.251792 255.755244,430.755331 C255.251702,431.258734 255,431.862014 255,432.565035 L255,447.434829 C255,448.137758 255.251657,448.741175 255.755244,449.244623 C256.258876,449.748116 256.862205,450 257.565229,450 L272.435045,450 C273.137841,450 273.741397,449.748116 274.244893,449.244623 C274.748526,448.741175 275,448.137758 275,447.434829 L275,432.565035 C274.999954,431.861877 274.748526,431.258916 274.24503,430.755331 Z M262.181245,437.206934 C262.966771,436.447498 263.910826,436.067598 265.013271,436.067598 C266.124246,436.067598 267.072542,436.447498 267.85825,437.206934 C268.643959,437.966507 269.036586,438.884561 269.036586,439.960915 C269.036586,441.037133 268.643959,441.955233 267.85825,442.714578 C267.072542,443.474333 266.124565,443.854188 265.013271,443.854188 C263.910871,443.854188 262.966908,443.474014 262.181245,442.714578 C261.395536,441.955142 261.002727,441.037133 261.002727,439.960915 C261.002727,438.884561 261.395536,437.966552 262.181245,437.206934 Z M272.734725,446.901189 C272.734725,447.126713 272.656373,447.315431 272.500262,447.467437 C272.343695,447.619306 272.157347,447.695286 271.940123,447.695286 L258.02102,447.695286 C257.795359,447.695286 257.606411,447.619306 257.454633,447.467437 C257.302626,447.315751 257.226692,447.126713 257.226692,446.901189 L257.226692,438.463387 L259.062581,438.463387 C258.889049,439.010344 258.802259,439.579008 258.802259,440.169154 C258.802259,441.8362 259.409829,443.257384 260.625105,444.433844 C261.840519,445.609847 263.303165,446.198123 265.013226,446.198123 C266.141713,446.198123 267.18332,445.928909 268.138502,445.390755 C269.093366,444.852281 269.848108,444.121121 270.404051,443.196545 C270.959675,442.272014 271.237464,441.262838 271.237464,440.169199 C271.237464,439.579054 271.150356,439.010526 270.976823,438.463433 L272.734816,438.463387 L272.734816,446.901235 L272.734725,446.901235 L272.734725,446.901189 Z M272.734725,435.273273 C272.734725,435.52502 272.647936,435.737727 272.474039,435.911305 C272.300506,436.085019 272.087934,436.171762 271.836049,436.171762 L269.570501,436.171762 C269.31889,436.171762 269.105999,436.084974 268.932466,435.911305 C268.758888,435.737727 268.672144,435.52502 268.672144,435.273273 L268.672144,433.125034 C268.672144,432.881953 268.758888,432.67148 268.932466,432.493478 C269.106044,432.315568 269.318935,432.226499 269.570501,432.226499 L271.836049,432.226499 C272.087934,432.226499 272.300551,432.315523 272.474039,432.493478 C272.64789,432.67148 272.734725,432.881953 272.734725,433.125034 L272.734725,435.273273 Z"></path>
    </g>
</svg>