<svg viewBox="0 0 25 24" xmlns="http://www.w3.org/2000/svg">
    <g transform="translate(-1117.000000, -347.000000)">
        <g transform="translate(1117.000000, 347.000000)">
            <path d="M25,14.7162552 L25,24 L19.6395596,24 L19.6395596,15.3337112 C19.6395596,13.1548346 18.8666569,11.6739905 16.9270545,11.6739905 C15.4437276,11.6739905 14.5687158,12.6765753 14.178108,13.6414456 C14.0374661,13.9889124 13.9947508,14.4755235 13.9947508,14.9558838 L13.9947508,23.9988969 L8.63959094,23.9988969 C8.63959094,23.9988969 8.71148035,9.32660695 8.63959094,7.80705045 L13.9958487,7.80705045 L13.9958487,10.1020645 C13.9885813,10.1209218 13.9729487,10.1365748 13.965629,10.1575332 L13.9958487,10.1575332 L13.9958487,10.1020645 C14.711449,8.99904795 15.9791599,7.42712193 18.8260329,7.42712193 C22.3593843,7.42717446 25,9.74104577 25,14.7162552 Z M3.0322692,0 C1.20000418,0 0,1.2077031 0,2.8005349 C0,4.35045206 1.16460845,5.59896872 2.96351678,5.59896872 L2.9958278,5.59896872 C4.86871687,5.59896872 6.02914266,4.35045206 6.02914266,2.8005349 C5.99270126,1.2077031 4.86876915,0 3.0322692,0 Z M0.319816381,23.9999475 L5.67711982,23.9999475 L5.67711982,7.80605244 L0.319816381,7.80605244 L0.319816381,23.9999475 Z" id="LinkedIn_3_"></path>
        </g>
    </g>
</svg>