<svg viewBox="0 0 16 28" xmlns="http://www.w3.org/2000/svg">
    <g>
        <g transform="translate(-281.000000, -7981.000000)"  fill-rule="nonzero">
            <g  transform="translate(275.000000, 7708.000000)">
                <g transform="translate(6.000000, 273.000000)">
                    <path d="M13.543,0 L1.997,0 C0.892,0 0,0.896 0,1.999 L0,25.445 C0,26.547 0.892,27.442 1.997,27.442 L13.543,27.442 C14.646,27.442 15.54,26.547 15.54,25.445 L15.54,1.999 C15.54,0.896 14.646,0 13.543,0 Z M4.921,1.214 L10.621,1.214 C10.765,1.214 10.882,1.429 10.882,1.695 C10.882,1.961 10.765,2.177 10.621,2.177 L4.921,2.177 C4.776,2.177 4.661,1.961 4.661,1.695 C4.661,1.429 4.776,1.214 4.921,1.214 Z M7.771,25.469 C7.068,25.469 6.496,24.897 6.496,24.193 C6.496,23.489 7.068,22.919 7.771,22.919 C8.472,22.919 9.044,23.489 9.044,24.193 C9.044,24.897 8.472,25.469 7.771,25.469 Z M14.044,21.1 L1.497,21.1 L1.497,3.373 L14.044,3.373 L14.044,21.1 Z"></path>
                </g>
            </g>
        </g>
    </g>
</svg>