
<svg viewBox="0 0 16 20" xmlns="http://www.w3.org/2000/svg">
    <g>
        <g transform="translate(-1039.000000, -6391.000000)">
            <g transform="translate(181.000000, 6082.000000)">
                <g transform="translate(856.000000, 270.000000)">
                    <path d="M9.65625,39 C5.43457031,39 2,42.4345703 2,46.65625 C2,48.0075781 2.35703125,49.3361328 3.03246094,50.4982422 C3.18992188,50.7691797 3.3659375,51.0332031 3.55570312,51.2830078 L9.32359375,59 L9.98886719,59 L15.7567969,51.2830469 C15.9465234,51.0332031 16.1225391,50.7692188 16.2800391,50.4982813 C16.9554688,49.3361328 17.3125,48.0075781 17.3125,46.65625 C17.3125,42.4345703 13.8779297,39 9.65625,39 Z M9.65625,49.1953125 C8.25621094,49.1953125 7.1171875,48.0562891 7.1171875,46.65625 C7.1171875,45.2562109 8.25621094,44.1171875 9.65625,44.1171875 C11.0562891,44.1171875 12.1953125,45.2562109 12.1953125,46.65625 C12.1953125,48.0562891 11.0562891,49.1953125 9.65625,49.1953125 Z"></path>
                </g>
            </g>
        </g>
    </g>
</svg>